<svg width="70" height="70" viewBox="0 0 70 70" fill="none" xmlns="http://www.w3.org/2000/svg">
<path d="M67 62.9365V28.3968C67 27.766 66.8554 27.1438 66.5777 26.5796C66.3 26.0153 65.8968 25.5245 65.4 25.146L37.4 3.8127C36.7076 3.28517 35.8655 3 35 3C34.1345 3 33.2924 3.28517 32.6 3.8127L4.6 25.146C4.10322 25.5245 3.7 26.0153 3.42229 26.5796C3.14458 27.1438 3 27.766 3 28.3968V62.9365C3 64.0142 3.42143 65.0478 4.17157 65.8098C4.92172 66.5719 5.93913 67 7 67H23C24.0609 67 25.0783 66.5719 25.8284 65.8098C26.5786 65.0478 27 64.0142 27 62.9365V50.746C27 49.6683 27.4214 48.6348 28.1716 47.8727C28.9217 47.1107 29.9391 46.6825 31 46.6825H39C40.0609 46.6825 41.0783 47.1107 41.8284 47.8727C42.5786 48.6348 43 49.6683 43 50.746V62.9365C43 64.0142 43.4214 65.0478 44.1716 65.8098C44.9217 66.5719 45.9391 67 47 67H63C64.0609 67 65.0783 66.5719 65.8284 65.8098C66.5786 65.0478 67 64.0142 67 62.9365Z" stroke="#989898" stroke-width="6" stroke-linecap="round" stroke-linejoin="round"/>
</svg>
