<svg width="105" height="69" viewBox="0 0 105 69" fill="none" xmlns="http://www.w3.org/2000/svg">
<path d="M86.5 11H18.5C13.8056 11 10 14.5071 10 18.8333V50.1667C10 54.4929 13.8056 58 18.5 58H86.5C91.1944 58 95 54.4929 95 50.1667V18.8333C95 14.5071 91.1944 11 86.5 11Z" fill="white"/>
<path d="M92.9 2H12.1C6.52192 2 2 6.85025 2 12.8333V56.1667C2 62.1497 6.52192 67 12.1 67H92.9C98.4781 67 103 62.1497 103 56.1667V12.8333C103 6.85025 98.4781 2 92.9 2Z" stroke="white" stroke-width="4" stroke-linecap="round" stroke-linejoin="round"/>
</svg>
