<svg width="33" height="33" viewBox="0 0 33 33" fill="none" xmlns="http://www.w3.org/2000/svg">
<path fill-rule="evenodd" clip-rule="evenodd" d="M0 6.70833C0 3.00342 3.00342 0 6.70833 0C10.4132 0 13.4167 3.00342 13.4167 6.70833C13.4167 10.4132 10.4132 13.4167 6.70833 13.4167C3.00342 13.4167 0 10.4132 0 6.70833ZM10.5417 6.70833C10.5417 4.59124 8.82542 2.875 6.70833 2.875C4.59124 2.875 2.875 4.59124 2.875 6.70833C2.875 8.82542 4.59124 10.5417 6.70833 10.5417C8.82542 10.5417 10.5417 8.82542 10.5417 6.70833Z" fill="black"/>
<path fill-rule="evenodd" clip-rule="evenodd" d="M19.1667 6.70833C19.1667 3.00342 22.1701 0 25.875 0C29.5799 0 32.5833 3.00342 32.5833 6.70833C32.5833 10.4132 29.5799 13.4167 25.875 13.4167C22.1701 13.4167 19.1667 10.4132 19.1667 6.70833ZM29.7083 6.70833C29.7083 4.59124 27.9921 2.875 25.875 2.875C23.7579 2.875 22.0417 4.59124 22.0417 6.70833C22.0417 8.82542 23.7579 10.5417 25.875 10.5417C27.9921 10.5417 29.7083 8.82542 29.7083 6.70833Z" fill="black"/>
<path fill-rule="evenodd" clip-rule="evenodd" d="M0 25.875C0 22.1701 3.00342 19.1667 6.70833 19.1667C10.4132 19.1667 13.4167 22.1701 13.4167 25.875C13.4167 29.5799 10.4132 32.5833 6.70833 32.5833C3.00342 32.5833 0 29.5799 0 25.875ZM10.5417 25.875C10.5417 23.7579 8.82542 22.0417 6.70833 22.0417C4.59124 22.0417 2.875 23.7579 2.875 25.875C2.875 27.9921 4.59124 29.7083 6.70833 29.7083C8.82542 29.7083 10.5417 27.9921 10.5417 25.875Z" fill="black"/>
<path fill-rule="evenodd" clip-rule="evenodd" d="M19.1667 25.875C19.1667 22.1701 22.1701 19.1667 25.875 19.1667C29.5799 19.1667 32.5833 22.1701 32.5833 25.875C32.5833 29.5799 29.5799 32.5833 25.875 32.5833C22.1701 32.5833 19.1667 29.5799 19.1667 25.875ZM29.7083 25.875C29.7083 23.7579 27.9921 22.0417 25.875 22.0417C23.7579 22.0417 22.0417 23.7579 22.0417 25.875C22.0417 27.9921 23.7579 29.7083 25.875 29.7083C27.9921 29.7083 29.7083 27.9921 29.7083 25.875Z" fill="black"/>
</svg>
