<svg width="422" height="366" viewBox="0 0 422 366" fill="none" xmlns="http://www.w3.org/2000/svg">
<path d="M212.98 364.54C213.237 364.446 213.496 364.358 213.752 364.264C213.827 364.357 213.906 364.447 213.982 364.54H388.261C404.268 345.081 413.965 320.294 413.965 293.486C413.965 252.016 391.549 215.785 358.173 196.242C332.257 181.067 310.356 159.854 294.942 134.08C266.947 87.2691 215.521 56.0871 156.859 56.7441C69.4656 57.7231 -1.16738 130.211 0.0146217 217.601C0.928622 285.202 44.1176 342.592 104.344 364.54H212.98Z" fill="#CDCDCE"/>
<path d="M380.737 179.369H274.581V103.399H390.737L380.737 179.369Z" fill="#FFCF50" stroke="#1D1D1B" stroke-width="0.5" stroke-miterlimit="10"/>
<path d="M380.737 179.369H274.581V103.399H357.468C370.319 103.399 380.738 113.817 380.738 126.669V179.369H380.737Z" fill="#FFCF50" stroke="#1D1D1B" stroke-width="0.5" stroke-miterlimit="10"/>
<path d="M402.53 0.25H336.251V78.325H402.53V0.25Z" fill="#FFCF50" stroke="#1D1D1B" stroke-width="0.5" stroke-miterlimit="10"/>
<path d="M351.519 17.8408H387.263" stroke="#1D1D1B" stroke-width="0.5" stroke-miterlimit="10"/>
<path d="M351.519 28.5649H387.263" stroke="#1D1D1B" stroke-width="0.5" stroke-miterlimit="10"/>
<path d="M351.519 39.2876H387.263" stroke="#1D1D1B" stroke-width="0.5" stroke-miterlimit="10"/>
<path d="M351.519 50.0107H387.263" stroke="#1D1D1B" stroke-width="0.5" stroke-miterlimit="10"/>
<path d="M351.519 60.7349H387.263" stroke="#1D1D1B" stroke-width="0.5" stroke-miterlimit="10"/>
<path d="M319.394 66.2241H206.679V125.266H220.595V138.803L228.998 125.266H319.394V66.2241Z" fill="white" stroke="#1D1D1B" stroke-width="0.5" stroke-miterlimit="10"/>
<path d="M401.085 156.506H323.104V197.352H332.732V206.718L338.544 197.352H401.085V156.506Z" fill="white" stroke="#1D1D1B" stroke-width="0.5" stroke-miterlimit="10"/>
<path d="M108.509 176.992C86.7417 177.777 68.8527 195.265 67.6007 217.01C67.5827 217.322 67.5677 217.633 67.5567 217.943C67.2707 225.832 61.4457 232.294 53.6877 233.755C31.4227 237.949 10.9517 259.339 10.9517 280.606C10.9517 307.661 33.3727 329.479 60.6477 328.493C84.9967 327.613 105.052 308.194 106.68 283.884C107.217 275.866 105.765 268.243 102.791 261.438C105.161 261.848 107.595 262.073 110.082 262.073C133.584 262.073 152.636 243.021 152.636 219.519C152.637 195.494 132.729 176.119 108.509 176.992Z" fill="#555556"/>
<path d="M207.762 164.737C229.528 165.522 247.418 183.01 248.67 204.755C248.688 205.067 248.703 205.378 248.714 205.688C249 213.577 254.825 220.039 262.583 221.5C284.848 225.694 305.319 247.084 305.319 268.351C305.319 295.406 282.898 317.224 255.623 316.238C231.274 315.358 211.219 295.939 209.591 271.629C209.054 263.611 210.506 255.988 213.48 249.183C211.11 249.593 208.676 249.818 206.189 249.818C182.687 249.818 163.635 230.766 163.635 207.264C163.633 183.238 183.542 163.864 207.762 164.737Z" fill="#555556"/>
<path d="M157.432 265.852C157.432 239.724 136.251 218.542 110.122 218.542C92.0055 218.542 76.2735 228.731 68.3255 243.686L68.0155 243.579L66.7175 247.024C66.1025 248.44 65.5555 249.891 65.0785 251.374L22.1265 364.846H156.935L156.619 274.56C157.145 271.736 157.432 268.829 157.432 265.852Z" fill="#01BCFF"/>
<path d="M86.7935 283.655L146.784 235.857L193.362 294.141L128.738 344.377L86.7935 283.655Z" fill="#FF9492"/>
<path d="M113.91 322.911L176.605 273.173L146.784 235.857L86.7935 283.655L113.91 322.911Z" fill="#01BCFF"/>
<mask id="mask0_217_6" style="mask-type:luminance" maskUnits="userSpaceOnUse" x="22" y="218" width="155" height="147">
<path d="M176.605 273.173L146.784 235.857L146.736 235.895C138.06 225.304 124.882 218.543 110.123 218.543C92.0065 218.543 76.2745 228.732 68.3265 243.687L68.0165 243.58L66.7185 247.025C66.1035 248.441 65.5565 249.892 65.0795 251.375L22.1265 364.846H156.935L156.591 289.051L176.605 273.173Z" fill="white"/>
</mask>
<g mask="url(#mask0_217_6)">
<path d="M46.4453 323.554C46.4393 323.418 46.4313 323.282 46.4223 323.146C45.7273 312.874 36.8713 304.75 26.5773 304.935C15.9553 305.126 7.40332 313.796 7.40332 324.464C7.40332 331.602 11.2353 337.835 16.9543 341.236C21.2513 343.791 24.0423 348.21 24.2753 353.203C24.2813 353.339 24.2893 353.475 24.2983 353.611C24.9933 363.883 33.8483 372.007 44.1433 371.822C54.7653 371.631 63.3173 362.961 63.3173 352.293C63.3173 345.155 59.4853 338.922 53.7663 335.521C49.4703 332.966 46.6793 328.547 46.4453 323.554Z" stroke="white" stroke-width="0.5" stroke-miterlimit="10"/>
<path d="M75.2821 246.025C75.3031 245.891 75.3231 245.756 75.3421 245.62C76.7361 235.419 69.7031 225.674 59.5841 223.776C49.1421 221.817 39.0151 228.582 36.8601 239.03C35.4181 246.021 37.9131 252.9 42.8271 257.385C46.5191 260.755 48.3601 265.647 47.5801 270.584C47.5591 270.718 47.5391 270.853 47.5201 270.989C46.1261 281.19 53.1581 290.935 63.2781 292.833C73.7201 294.792 83.8471 288.027 86.0011 277.579C87.4431 270.588 84.9481 263.709 80.0341 259.224C76.3431 255.855 74.5021 250.963 75.2821 246.025Z" stroke="white" stroke-width="0.5" stroke-miterlimit="10"/>
<path d="M135.088 322.338C135.156 322.22 135.223 322.102 135.289 321.982C140.265 312.968 137.215 301.344 128.46 295.928C119.425 290.339 107.541 293 101.767 301.97C97.9031 307.972 97.7521 315.288 100.72 321.242C102.95 325.716 102.905 330.943 100.399 335.268C100.331 335.386 100.264 335.504 100.198 335.624C95.2221 344.638 98.2721 356.262 107.027 361.678C116.062 367.267 127.946 364.606 133.72 355.636C137.584 349.634 137.735 342.318 134.767 336.364C132.537 331.89 132.582 326.663 135.088 322.338Z" stroke="white" stroke-width="0.5" stroke-miterlimit="10"/>
<path d="M152.296 247.754C152.432 247.752 152.568 247.748 152.705 247.744C162.994 247.373 171.392 238.777 171.532 228.482C171.676 217.859 163.279 209.038 152.617 208.702C145.482 208.477 139.131 212.112 135.553 217.72C132.864 221.934 128.359 224.585 123.361 224.661C123.225 224.663 123.089 224.667 122.952 224.671C112.663 225.042 104.265 233.638 104.125 243.933C103.981 254.556 112.378 263.377 123.04 263.713C130.175 263.938 136.526 260.303 140.104 254.695C142.793 250.481 147.298 247.83 152.296 247.754Z" stroke="white" stroke-width="0.5" stroke-miterlimit="10"/>
</g>
<path d="M86.7935 283.655L128.738 344.377" stroke="#1D1D1B" stroke-width="0.5" stroke-miterlimit="10"/>
<path d="M90.8057 304.149L106.159 312.388" stroke="#1D1D1B" stroke-width="0.5" stroke-miterlimit="10"/>
<path d="M289.347 286.678L289.754 286.448L234.888 220.458C231.961 216.937 229.989 212.723 229.161 208.22L222.903 174.175C221.827 168.324 218.312 163.207 213.235 160.106L196.151 149.668L183.091 223.073L207.127 318.215C207.601 321.984 208.531 325.583 209.844 328.971L210.42 331.253L210.723 331.082C218.655 348.816 237.476 360.084 257.753 357.542C282.6 354.427 300.218 331.759 297.103 306.912C296.159 299.374 293.406 292.508 289.347 286.678Z" fill="#FF9492"/>
<path d="M171.496 215.779C193.359 215.779 211.083 198.055 211.083 176.192C211.083 154.329 193.359 136.605 171.496 136.605C149.632 136.605 131.909 154.329 131.909 176.192C131.909 198.055 149.632 215.779 171.496 215.779Z" fill="#FF9492" stroke="#1D1D1B" stroke-width="0.5" stroke-miterlimit="10"/>
<path d="M182.547 150.985C182.465 143.466 176.372 137.139 168.861 136.79C160.612 136.407 153.805 142.981 153.805 151.146C153.805 151.51 153.833 151.866 153.859 152.223C152.72 152.026 151.555 151.902 150.359 151.902C138.715 151.902 129.348 161.646 129.965 173.424C130.505 183.733 138.95 192.178 149.259 192.718C161.038 193.336 170.782 183.968 170.782 172.324C170.782 172.3 170.782 172.276 170.782 172.252C170.769 168.64 172.561 165.302 175.646 163.423C179.827 160.876 182.604 156.253 182.547 150.985Z" fill="#8150FE"/>
<path d="M192.875 164.283C192.79 164.539 190.975 171.355 189.891 175.43C189.383 177.342 189.7 179.376 190.764 181.044L193.419 185.208C194.471 186.857 194.005 189.045 192.373 190.124L188.486 192.692" stroke="#1D1D1B" stroke-width="0.5" stroke-miterlimit="10"/>
<path d="M177.451 182.574C178.831 182.574 179.951 180.582 179.951 178.123C179.951 175.665 178.831 173.672 177.451 173.672C176.07 173.672 174.951 175.665 174.951 178.123C174.951 180.582 176.07 182.574 177.451 182.574Z" fill="#1D1D1B"/>
<path d="M197.691 182.574C199.072 182.574 200.191 180.582 200.191 178.123C200.191 175.665 199.072 173.672 197.691 173.672C196.31 173.672 195.191 175.665 195.191 178.123C195.191 180.582 196.31 182.574 197.691 182.574Z" fill="#1D1D1B"/>
<path d="M176.791 165.833L183.978 161.32" stroke="#1D1D1B" stroke-width="2" stroke-miterlimit="10" stroke-linecap="round"/>
<path d="M196.898 161.845L202.909 166.114" stroke="#1D1D1B" stroke-width="2" stroke-miterlimit="10" stroke-linecap="round"/>
<path d="M183.11 199.488L184.721 198.173C185.892 197.217 187.533 197.085 188.842 197.841L189.232 198.066C190.636 198.876 192.382 198.795 193.705 197.859L195.373 196.679" stroke="#1D1D1B" stroke-width="0.5" stroke-miterlimit="10" stroke-linecap="round"/>
<path d="M202.037 149.167L129.772 172.009L144.837 115.313C147.507 105.263 160.286 102.223 167.196 109.993L202.037 149.167Z" fill="#FFB03C"/>
<path d="M134.808 152.08L189.957 135.059" stroke="#1D1D1B" stroke-width="0.5" stroke-miterlimit="10"/>
<path d="M205.785 321.206L205.8 321.209L199.043 230.705C198.221 219.692 192.813 209.53 184.137 202.696L162.149 185.376V171.123C162.149 167.094 159.203 163.535 155.197 163.109C151.99 162.768 149.133 164.378 147.639 166.892V166.148C147.639 162.071 144.631 158.474 140.572 158.099C138.256 157.885 136.134 158.692 134.58 160.112C133.285 157.595 130.667 155.87 127.642 155.87C123.966 155.87 120.892 158.415 120.065 161.836C118.676 161.132 117.054 160.82 115.337 161.084C111.491 161.675 108.743 165.148 108.743 169.039V187.694C108.743 188.504 108.867 189.286 109.096 190.02L109.366 191.856C110.286 198.11 113.908 203.644 119.272 206.99L146.786 224.151L127.521 304.87C127.521 304.87 123.294 317.061 123.294 323.891C123.294 346.697 141.782 365.185 164.588 365.185C187.394 365.185 205.882 346.697 205.882 323.891C205.881 322.989 205.842 322.095 205.785 321.206Z" fill="#FF9492" stroke="#1D1D1B" stroke-width="0.5" stroke-miterlimit="10"/>
<path d="M119.838 186.353V163.673C119.838 159.363 123.332 155.869 127.642 155.869C130.667 155.869 133.291 157.591 134.586 160.108" stroke="#1D1D1B" stroke-width="0.5" stroke-miterlimit="10"/>
<path d="M132.031 186.353V165.868C132.031 161.558 135.525 158.064 139.835 158.064C144.145 158.064 147.639 161.558 147.639 165.868V166.891" stroke="#1D1D1B" stroke-width="0.5" stroke-miterlimit="10"/>
<path d="M146.541 186.353V170.868C146.541 166.558 150.035 163.064 154.345 163.064C158.655 163.064 162.149 166.558 162.149 170.868V186.353" stroke="#1D1D1B" stroke-width="0.5" stroke-miterlimit="10"/>
<path d="M368.455 358.974H152.554V365.152H368.455V358.974Z" fill="white" stroke="#1D1D1B" stroke-width="0.5" stroke-miterlimit="10"/>
<path d="M366.133 358.974H235.721C233.27 358.974 231.6 356.491 232.524 354.221L277.472 243.745C278.001 242.444 279.265 241.594 280.669 241.594H411.08C413.531 241.594 415.201 244.077 414.277 246.347L369.33 356.823C368.801 358.123 367.537 358.974 366.133 358.974Z" fill="white" stroke="#1D1D1B" stroke-width="0.5" stroke-miterlimit="10"/>
<path d="M372.873 358.974H242.462C240.011 358.974 238.341 356.491 239.265 354.221L284.213 243.745C284.742 242.444 286.006 241.594 287.41 241.594H417.821C420.272 241.594 421.942 244.077 421.018 246.347L376.07 356.823C375.541 358.123 374.277 358.974 372.873 358.974Z" fill="white" stroke="#1D1D1B" stroke-width="0.5" stroke-miterlimit="10"/>
<path d="M15.0166 364.846H397.7" stroke="#1D1D1B" stroke-miterlimit="10"/>
</svg>
