<svg width="24" height="24" viewBox="0 0 24 24" fill="none" xmlns="http://www.w3.org/2000/svg">
<path d="M10.2681 21C10.4436 21.304 10.6961 21.5565 11.0001 21.732C11.3041 21.9075 11.649 21.9999 12.0001 21.9999C12.3511 21.9999 12.696 21.9075 13 21.732C13.3041 21.5565 13.5565 21.304 13.7321 21" stroke="black" stroke-width="2" stroke-linecap="round" stroke-linejoin="round"/>
<path d="M11.6798 2.00879C10.1461 2.0907 8.70228 2.7576 7.64561 3.87213C6.58893 4.98666 5.99988 6.46397 5.99976 7.99979C5.99976 12.4988 4.58876 13.9558 3.26176 15.3258C3.13112 15.469 3.04491 15.647 3.01361 15.8383C2.98231 16.0296 3.00728 16.2258 3.08546 16.4032C3.16365 16.5805 3.29169 16.7313 3.45401 16.8373C3.61633 16.9432 3.80594 16.9996 3.99976 16.9998H19.9998C20.1936 16.9999 20.3832 16.9436 20.5456 16.8379C20.708 16.7322 20.8363 16.5815 20.9146 16.4043C20.993 16.2271 21.0182 16.0309 20.9872 15.8396C20.9561 15.6483 20.8702 15.4701 20.7398 15.3268C19.9158 14.4768 19.0618 13.5958 18.5298 11.9788" stroke="black" stroke-width="2" stroke-linecap="round" stroke-linejoin="round"/>
<path d="M18 3.5C18.8284 3.5 19.5 4.17157 19.5 5C19.5 5.82843 18.8284 6.5 18 6.5C17.1716 6.5 16.5 5.82843 16.5 5C16.5 4.17157 17.1716 3.5 18 3.5Z" stroke="#EB0202" stroke-width="3" stroke-linecap="round" stroke-linejoin="round"/>
</svg>
