<svg width="39" height="38" viewBox="0 0 39 38" fill="none" xmlns="http://www.w3.org/2000/svg">
<path fill-rule="evenodd" clip-rule="evenodd" d="M8.51433 0H29.8277C34.6828 0.166636 38.4884 4.22932 38.3377 9.085V21.5817C38.4098 23.9268 37.5443 26.2039 35.9327 27.909C34.3212 29.6141 32.0964 30.6066 29.751 30.6667H11.5043C10.2416 30.6928 9.04413 31.2327 8.18849 32.1617L3.64599 37.0108C3.26115 37.4306 2.72039 37.6732 2.15099 37.6817C1.56292 37.6667 1.00524 37.4172 0.60206 36.9889C0.198885 36.5605 -0.0163259 35.9887 0.00432626 35.4008V9.085C-0.146385 4.22932 3.65916 0.166636 8.51433 0ZM29.8276 27.7917C33.0955 27.6263 35.6146 24.8501 35.4627 21.5817V9.085C35.6146 5.81655 33.0955 3.04035 29.8276 2.875H8.51432C5.24652 3.04035 2.72737 5.81655 2.87932 9.085V33.6183L6.00349 30.2067C7.43221 28.6869 9.41853 27.8148 11.5043 27.7917H29.8276Z" fill="black"/>
<path d="M11.9835 12.9375H21.5668C22.3607 12.9375 23.0043 12.2939 23.0043 11.5C23.0043 10.7061 22.3607 10.0625 21.5668 10.0625H11.9835C11.1896 10.0625 10.546 10.7061 10.546 11.5C10.546 12.2939 11.1896 12.9375 11.9835 12.9375Z" fill="black"/>
<path d="M26.3585 17.7292H11.9835C11.1896 17.7292 10.546 18.3728 10.546 19.1667C10.546 19.9606 11.1896 20.6042 11.9835 20.6042H26.3585C27.1524 20.6042 27.796 19.9606 27.796 19.1667C27.796 18.3728 27.1524 17.7292 26.3585 17.7292Z" fill="black"/>
</svg>
