<svg width="70" height="106" viewBox="0 0 70 106" fill="none" xmlns="http://www.w3.org/2000/svg">
<path d="M58.4227 86.6444L58.2904 18.6445C58.2813 13.9501 54.7668 10.1514 50.4405 10.1598L19.1073 10.2207C14.781 10.2292 11.2814 14.0416 11.2905 18.736L11.4228 86.7358C11.4319 91.4302 14.9464 95.229 19.2727 95.2206L50.6059 95.1596C54.9322 95.1512 58.4318 91.3388 58.4227 86.6444Z" fill="white"/>
<path d="M66.9978 93.3764L67.7129 12.5796C67.7623 7.00173 62.9522 2.43705 56.9694 2.3841L13.6378 2.00059C7.65491 1.94764 2.76483 6.42646 2.71546 12.0043L2.00036 92.8012C1.95099 98.379 6.76103 102.944 12.7439 102.997L56.0755 103.38C62.0584 103.433 66.9484 98.9543 66.9978 93.3764Z" stroke="white" stroke-width="4" stroke-linecap="round" stroke-linejoin="round"/>
</svg>
