<svg width="70" height="70" viewBox="0 0 70 70" fill="none" xmlns="http://www.w3.org/2000/svg">
<path d="M67 63.4444C67 64.3874 66.5786 65.2918 65.8284 65.9586C65.0783 66.6254 64.0609 67 63 67H7C5.93913 67 4.92172 66.6254 4.17157 65.9586C3.42143 65.2918 3 64.3874 3 63.4444C3 58.7295 5.10714 54.2076 8.85786 50.8737C12.6086 47.5397 17.6957 45.6667 23 45.6667H47C52.3043 45.6667 57.3914 47.5397 61.1421 50.8737C64.8929 54.2076 67 58.7295 67 63.4444ZM35 3C31.8355 3 28.7421 3.83412 26.1109 5.39688C23.4797 6.95963 21.4289 9.18084 20.2179 11.7796C19.0069 14.3784 18.6901 17.238 19.3074 19.9968C19.9248 22.7557 21.4487 25.2898 23.6863 27.2789C25.9239 29.2679 28.7749 30.6224 31.8786 31.1712C34.9823 31.7199 38.1993 31.4383 41.1229 30.3618C44.0466 29.2854 46.5454 27.4625 48.3035 25.1237C50.0616 22.7848 51 20.0351 51 17.2222C51 13.4503 49.3143 9.83278 46.3137 7.16559C43.3131 4.49841 39.2435 3 35 3Z" stroke="#989898" stroke-width="6" stroke-linecap="round" stroke-linejoin="round"/>
</svg>
