<svg width="70" height="70" viewBox="0 0 70 70" fill="none" xmlns="http://www.w3.org/2000/svg">
<path d="M23 45.6668H47C52.3043 45.6668 57.3914 47.5398 61.1421 50.8737C64.8929 54.2077 67 58.7296 67 63.4445C67 64.3875 66.5786 65.2919 65.8284 65.9587C65.0783 66.6255 64.0609 67.0001 63 67.0001H7C5.93913 67.0001 4.92172 66.6255 4.17157 65.9587C3.42143 65.2919 3 64.3875 3 63.4445C3 58.7296 5.10714 54.2077 8.85786 50.8737C12.6086 47.5398 17.6957 45.6668 23 45.6668Z" fill="black"/>
<path d="M67 63.4445C67 64.3875 66.5786 65.2919 65.8284 65.9587C65.0783 66.6255 64.0609 67.0001 63 67.0001H7C5.93913 67.0001 4.92172 66.6255 4.17157 65.9587C3.42143 65.2919 3 64.3875 3 63.4445C3 58.7296 5.10714 54.2077 8.85786 50.8737C12.6086 47.5398 17.6957 45.6668 23 45.6668H47C52.3043 45.6668 57.3914 47.5398 61.1421 50.8737C64.8929 54.2077 67 58.7296 67 63.4445ZM35 3C31.8355 3 28.7421 3.83412 26.1109 5.39688C23.4797 6.95963 21.4289 9.18084 20.2179 11.7796C19.0069 14.3784 18.6901 17.238 19.3074 19.9968C19.9248 22.7557 21.4487 25.2898 23.6863 27.2789C25.9239 29.2679 28.7749 30.6224 31.8786 31.1712C34.9823 31.7199 38.1993 31.4383 41.1229 30.3618C44.0466 29.2854 46.5454 27.4625 48.3035 25.1237C50.0616 22.7848 51 20.0351 51 17.2222C51 13.4503 49.3143 9.83278 46.3137 7.16559C43.3131 4.49841 39.2435 3 35 3Z" fill="black"/>
<path d="M47 45.6668V42.6668V45.6668ZM35 3V0V3ZM51 17.2222H54H51ZM23 45.6668V48.6668H47V45.6668V42.6668H23V45.6668ZM47 45.6668V48.6668C51.6153 48.6668 55.9807 50.2997 59.149 53.116L61.1421 50.8737L63.1352 48.6315C58.8021 44.7799 52.9934 42.6668 47 42.6668V45.6668ZM61.1421 50.8737L59.149 53.116C62.3059 55.922 64 59.6469 64 63.4445H67H70C70 57.8123 67.4798 52.4934 63.1352 48.6315L61.1421 50.8737ZM67 63.4445H64C64 63.4654 63.996 63.4957 63.9763 63.538C63.9561 63.5813 63.9151 63.6456 63.8353 63.7165L65.8284 65.9587L67.8215 68.2009C69.1656 67.0062 70 65.3048 70 63.4445H67ZM65.8284 65.9587L63.8353 63.7165C63.6676 63.8656 63.3718 64.0001 63 64.0001V67.0001V70.0001C64.7499 70.0001 66.489 69.3854 67.8215 68.2009L65.8284 65.9587ZM63 67.0001V64.0001H7V67.0001V70.0001H63V67.0001ZM7 67.0001V64.0001C6.62817 64.0001 6.33243 63.8656 6.16467 63.7165L4.17157 65.9587L2.17848 68.2009C3.51101 69.3854 5.2501 70.0001 7 70.0001V67.0001ZM4.17157 65.9587L6.16467 63.7165C6.08489 63.6455 6.04391 63.5813 6.02374 63.538C6.00402 63.4957 6 63.4654 6 63.4445H3H0C0 65.3048 0.83445 67.0062 2.17848 68.2009L4.17157 65.9587ZM3 63.4445H6C6 59.6469 7.69412 55.922 10.851 53.116L8.85786 50.8737L6.86477 48.6315C2.52016 52.4934 0 57.8123 0 63.4445H3ZM8.85786 50.8737L10.851 53.116C14.0193 50.2997 18.3847 48.6668 23 48.6668V45.6668V42.6668C17.0066 42.6668 11.1979 44.7799 6.86477 48.6315L8.85786 50.8737ZM35 3V0C31.3155 0 27.6899 0.969774 24.5789 2.81752L26.1109 5.39688L27.6429 7.97623C29.7942 6.69846 32.3555 6 35 6V3ZM26.1109 5.39688L24.5789 2.81752C21.4658 4.6665 18.982 7.32931 17.4987 10.5125L20.2179 11.7796L22.9372 13.0468C23.8759 11.0324 25.4936 9.25277 27.6429 7.97623L26.1109 5.39688ZM20.2179 11.7796L17.4987 10.5125C16.0123 13.7023 15.6157 17.2371 16.3798 20.652L19.3074 19.9968L22.235 19.3417C21.7645 17.2389 22.0016 15.0545 22.9372 13.0468L20.2179 11.7796ZM19.3074 19.9968L16.3798 20.652C17.1429 24.0621 19.0148 27.1403 21.6932 29.5211L23.6863 27.2789L25.6794 25.0366C23.8825 23.4394 22.7066 21.4493 22.235 19.3417L19.3074 19.9968ZM23.6863 27.2789L21.6932 29.5211C24.3681 31.8988 27.736 33.4853 31.3562 34.1253L31.8786 31.1712L32.4009 28.217C29.8137 27.7596 27.4798 26.637 25.6794 25.0366L23.6863 27.2789ZM31.8786 31.1712L31.3562 34.1253C34.9763 34.7654 38.7316 34.4392 42.1595 33.1771L41.1229 30.3618L40.0864 27.5466C37.667 28.4374 34.9882 28.6745 32.4009 28.217L31.8786 31.1712ZM41.1229 30.3618L42.1595 33.1771C45.5882 31.9147 48.5737 29.757 50.7016 26.9263L48.3035 25.1237L45.9055 23.3211C44.5171 25.168 42.505 26.6561 40.0864 27.5466L41.1229 30.3618ZM48.3035 25.1237L50.7016 26.9263C52.8335 24.0901 54 20.7128 54 17.2222H51H48C48 19.3574 47.2897 21.4796 45.9055 23.3211L48.3035 25.1237ZM51 17.2222H54C54 12.5329 51.9013 8.11845 48.3068 4.92336L46.3137 7.16559L44.3206 9.40782C46.7273 11.5471 48 14.3676 48 17.2222H51ZM46.3137 7.16559L48.3068 4.92336C44.7238 1.73851 39.9325 0 35 0V3V6C38.5544 6 41.9024 7.25831 44.3206 9.40782L46.3137 7.16559Z" fill="black"/>
</svg>
